<?xml version="1.0" encoding="UTF-8"?>
<svg id="_レイヤー_2" data-name="レイヤー 2" xmlns="http://www.w3.org/2000/svg" width="260" height="50" viewBox="0 0 260 50">
  <defs>
    <style>
      .cls-1 {
        fill: #fff;
      }

      .cls-2 {
        fill: #dc3c26;
      }
    </style>
  </defs>
  <g id="_レイヤー_1-2" data-name="レイヤー 1">
    <path class="cls-2" d="m260,25c0,13.75-11.25,25-25,25H25C11.25,50,0,38.75,0,25h0C0,11.25,11.25,0,25,0h210c13.75,0,25,11.25,25,25h0Z"/>
    <g>
      <path class="cls-1" d="m67.03,34.8c-.45.22-1.26.4-2.23.4-2.72,0-4.61-1.46-5.53-3.48-2.84-.54-4.74-3.06-4.74-6.86,0-4.34,2.43-6.86,5.96-6.86s5.96,2.54,5.96,6.86c0,3.64-1.73,6.08-4.38,6.77.61,1.01,1.82,1.42,3.03,1.42.58,0,1.08-.09,1.46-.22l.47,1.96Zm-6.54-5.15c1.98,0,3.24-1.8,3.24-4.79s-1.26-4.57-3.24-4.57-3.24,1.71-3.24,4.57,1.26,4.79,3.24,4.79Z"/>
      <path class="cls-1" d="m77.21,31.58l-2.74-5.04h-1.85v5.04h-2.67v-13.32h4.65c2.79,0,5.01.97,5.01,4.03,0,2-1.01,3.24-2.54,3.83l3.12,5.46h-2.97Zm-4.59-7.15h1.73c1.71,0,2.65-.72,2.65-2.14s-.94-1.93-2.65-1.93h-1.73v4.07Z"/>
      <path class="cls-1" d="m94.13,31.98c.02-.29.02-.59.02-.94h-8.21c-.7,0-1.73.05-2.32.11v-2.57c.63.05,1.44.11,2.25.11h8.3v-7.45h-8.08c-.76,0-1.73.04-2.23.07v-2.5c.67.07,1.6.11,2.23.11h9.06c.52,0,1.28-.02,1.58-.04-.02.41-.05,1.13-.05,1.66v9.33c0,.63.04,1.58.07,2.12h-2.61Z"/>
      <path class="cls-1" d="m101.4,23.24c.65.05,1.96.11,2.9.11h9.67c.83,0,1.64-.07,2.11-.11v2.83c-.43-.02-1.35-.09-2.11-.09h-9.67c-1.03,0-2.23.04-2.9.09v-2.83Z"/>
      <path class="cls-1" d="m124.5,22.4c2.39.72,5.87,2,7.53,2.81l-1.01,2.5c-1.87-.99-4.57-2.04-6.52-2.68v5.1c0,.5.09,1.76.18,2.5h-2.83c.11-.7.18-1.8.18-2.5v-10.35c0-.65-.05-1.53-.18-2.18h2.81c-.07.63-.16,1.42-.16,2.18v2.63Zm4.79-.79c-.52-1.13-.92-1.85-1.58-2.77l1.51-.65c.5.76,1.22,1.91,1.64,2.72l-1.57.7Zm2.47-1.01c-.58-1.13-1.01-1.8-1.67-2.7l1.49-.7c.52.72,1.28,1.85,1.69,2.67l-1.51.74Z"/>
      <path class="cls-1" d="m142.01,20.99h-6.32v-1.69h6.32v1.69Zm-.5,10.43c2.67-1.04,2.92-2.79,3.03-5.8h2c-.14,3.76-.63,6.19-3.96,7.58-.2-.47-.67-1.15-1.06-1.57v.54h-3.33v.72h-1.75v-6.14h5.08v4.66Zm-.04-7.98h-4.99v-1.64h4.99v1.64Zm-4.99.83h4.99v1.6h-4.99v-1.6Zm4.95-5.76h-4.84v-1.62h4.84v1.62Zm-1.67,9.92h-1.58v2.07h1.58v-2.07Zm4.27-1.89h-1.89v-3.44h10.12v3.44h-1.98v-1.76h-6.25v1.76Zm2.02-7.13h-3.71v-1.73h3.71v-1.35h2.12v1.35h3.96v1.73h-3.96v1.08h3.42v1.73h-8.66v-1.73h3.12v-1.08Zm4.57,11.74c.29,0,.36-.29.4-2.29.4.32,1.22.65,1.76.79-.18,2.67-.65,3.35-1.94,3.35h-1.21c-1.57,0-1.93-.59-1.93-2.41v-4.95h1.98v4.93c0,.52.04.58.31.58h.63Z"/>
      <path class="cls-1" d="m170.17,29.19c-.47-.42-.99-.85-1.53-1.24-.79,2.02-2.14,3.58-4.52,4.83l-1.91-1.55c2.7-1.15,3.94-2.86,4.54-4.48-1.26-.68-2.67-1.22-4.18-1.44-.67,1.53-1.44,3.29-2.07,4.29-.7,1.08-1.55,1.57-2.77,1.57-1.57,0-2.74-1.08-2.74-2.88,0-2.75,2.5-4.88,6.09-5.04.5-1.15,1.01-2.36,1.42-3.21-.7.02-2.23.07-3.04.13-.38.02-1.01.09-1.46.16l-.09-2.3c.47.05,1.08.07,1.48.07,1.01,0,2.92-.07,3.75-.14.43-.04.9-.14,1.21-.27l1.42,1.12c-.25.27-.45.5-.59.76-.47.76-1.12,2.3-1.75,3.82,1.39.22,2.68.65,3.83,1.15.02-.22.04-.41.05-.61.04-.68.05-1.37-.02-1.94l2.34.27c-.07,1.19-.16,2.3-.34,3.31.74.41,1.39.85,1.91,1.19l-1.03,2.47Zm-10.01-3.91c-1.98.31-3.06,1.51-3.06,2.63,0,.5.31.85.67.85s.61-.16.94-.61c.45-.67.96-1.76,1.46-2.86Z"/>
      <path class="cls-1" d="m189.57,18.9c-.38,3.92-1.24,7.02-2.59,9.43.88,1.21,1.96,2.21,3.26,2.92-.49.4-1.15,1.21-1.48,1.76-1.22-.74-2.23-1.66-3.1-2.75-.92,1.12-1.98,2.02-3.21,2.75-.27-.47-.76-1.13-1.19-1.57v1.69h-2.07v-2.88c-2.07.36-4.18.68-5.83.94l-.41-2.14c.49-.05,1.04-.11,1.66-.18v-9.56h-1.22v-1.98h9.04v1.28h5.38l.36-.05,1.4.34Zm-12.93.41v1.71h2.56v-1.71h-2.56Zm0,5.44h2.56v-1.8h-2.56v1.8Zm0,3.87c.83-.11,1.69-.23,2.56-.34v-1.62h-2.56v1.96Zm4.63,2.54c1.19-.67,2.23-1.64,3.12-2.86-1.1-2-1.87-4.41-2.43-7.13l2.05-.41c.36,1.93.9,3.75,1.66,5.33.7-1.55,1.24-3.35,1.55-5.37h-5.31v-1.4h-.63v11.85Z"/>
      <path class="cls-1" d="m196.28,17.18c-.25.88-.61,2.7-.72,3.69.85-1.37,2.39-2.88,4.41-2.88,2.48,0,4.41,2.43,4.41,6.36,0,5.04-3.1,7.45-7.81,8.32l-1.35-2.07c3.96-.61,6.73-1.91,6.73-6.23,0-2.75-.92-4.29-2.39-4.29-2.11,0-3.94,3.17-4.03,5.51-.02.49-.02,1.06.09,1.89l-2.21.14c-.09-.68-.22-1.78-.22-2.97,0-1.66.23-3.87.5-5.71.09-.65.13-1.37.14-1.87l2.45.11Z"/>
    </g>
  </g>
</svg>