<?xml version="1.0" encoding="UTF-8"?>
<svg id="_レイヤー_2" data-name="レイヤー 2" xmlns="http://www.w3.org/2000/svg" width="260" height="50" viewBox="0 0 260 50">
  <defs>
    <style>
      .cls-1 {
        fill: #fff;
      }
    </style>
  </defs>
  <g id="_レイヤー_1-2" data-name="レイヤー 1">
    <g>
      <path class="cls-1" d="m25,49.5C11.49,49.5.5,38.51.5,25S11.49.5,25,.5h210c13.51,0,24.5,10.99,24.5,24.5s-10.99,24.5-24.5,24.5H25Z"/>
      <path d="m235,1c13.23,0,24,10.77,24,24s-10.77,24-24,24H25c-13.23,0-24-10.77-24-24S11.77,1,25,1h210m0-1H25C11.25,0,0,11.25,0,25s11.25,25,25,25h210c13.75,0,25-11.25,25-25S248.75,0,235,0h0Z"/>
    </g>
    <g>
      <path d="m78.49,29.06c.7,1.21,1.96,1.71,3.8,1.78,2.16.09,6.41.04,8.9-.16-.25.5-.56,1.49-.67,2.09-2.23.11-6.05.14-8.25.05-2.14-.09-3.58-.61-4.66-2-.72.7-1.46,1.39-2.38,2.16l-1.01-2.12c.7-.45,1.51-1.04,2.23-1.66v-3.92h-2.02v-1.96h4.05v5.74Zm-1.28-8.07c-.5-.88-1.69-2.12-2.7-2.99l1.64-1.22c1.01.81,2.25,2,2.83,2.86l-1.76,1.35Zm4.43,9.2h-1.85v-7.83h1.33v-5.51h7.76v5.51h1.31v6.01c0,.83-.14,1.3-.7,1.58-.54.27-1.26.29-2.25.29-.05-.47-.23-1.1-.43-1.55h-2.72v.54h-1.53v-4.52h4.7v3.87h.74c.2,0,.25-.05.25-.23v-4.38h-6.61v6.21Zm1.33-7.83h1.08v-2.81h2.9v-1.12h-3.98v3.93Zm2.74,3.73h-1.62v1.24h1.62v-1.24Zm1.24-5.2h-1.4v1.48h1.4v-1.48Z"/>
      <path d="m101.32,25.57c-.65,1.53-1.42,3.17-2.14,4.52,2.02-.09,4.21-.22,6.37-.32-.58-.85-1.19-1.66-1.76-2.38l2.03-.9c1.55,1.76,3.17,4.11,3.94,5.73l-2.14,1.12c-.18-.43-.45-.94-.76-1.48-4.47.31-9.17.58-12.42.74l-.31-2.27,2.58-.11c.68-1.37,1.39-3.11,1.87-4.64h-5.11v-2.16h6.93v-2.56h-5.56v-2.14h5.56v-2.38h2.25v2.38h5.87v2.14h-5.87v2.56h7.17v2.16h-8.5Z"/>
      <path d="m119.96,30.21c.68-.09,1.19-.18,1.66-.29,2.29-.54,4.05-2.18,4.05-4.77s-1.33-4.3-3.73-4.72c-.25,1.51-.56,3.17-1.06,4.84-1.06,3.6-2.61,5.8-4.56,5.8s-3.64-2.18-3.64-5.19c0-4.1,3.58-7.63,8.21-7.63s7.2,3.08,7.2,6.97-2.3,6.41-6.81,7.09l-1.33-2.11Zm-1.39-5.4c.41-1.31.74-2.84.95-4.32-2.95.61-4.52,3.21-4.52,5.17,0,1.8.72,2.68,1.39,2.68.74,0,1.46-1.12,2.18-3.53Z"/>
      <path d="m130.74,19.3h7.36v1.69h-7.36v-1.69Zm6.59,12.89h-3.92v.7h-1.85v-6.14h5.78v5.44Zm-5.73-10.39h5.78v1.64h-5.78v-1.64Zm0,2.47h5.78v1.6h-5.78v-1.6Zm5.83-5.76h-5.73v-1.62h5.73v1.62Zm-4.03,9.94v2.07h2.05v-2.07h-2.05Zm11.18,2.52c.81,0,.94-.41,1.06-2.67.47.34,1.41.7,1.98.83-.27,2.99-.85,3.85-2.88,3.85h-2.97c-2.23,0-2.93-.59-2.93-2.9v-7.06h5.69v-3.76h-5.73v-2.03h7.87v8.71h-2.14v-.88h-3.51v5.02c0,.76.14.88.99.88h2.58Z"/>
      <path d="m156.54,30.03c.9-.52,2.09-1.28,3.26-2.05l.65,1.62c-1.06.81-2.21,1.64-3.24,2.34l-.59-1.03.05.52c-2.23.47-4.61.97-6.43,1.31l-.4-1.94c.76-.11,1.66-.25,2.65-.41v-4.7h-2.45v-1.8h2.45v-1.31h-1.58v-.81c-.11.11-.23.22-.34.32-.27-.41-.86-1.12-1.28-1.39,1.51-1.28,2.56-2.97,3.12-4.36h1.76c1.06.88,2.38,2.16,3.01,3.1l-1.13,1.35h.16v1.78h-1.85v1.31h2.23v1.8h-2.23v4.36l2.16-.38.04.36Zm-4.95-3.66c.29.99.54,2.27.63,3.1l-1.44.4c-.04-.86-.29-2.16-.56-3.15l1.37-.34Zm4.03-5.58c-.5-.74-1.3-1.75-2.05-2.47-.45.77-1.03,1.62-1.75,2.47h3.8Zm-1.08,8.35c.23-.79.52-2.07.63-2.92l1.55.38c-.32,1.01-.61,2.16-.88,2.9l-1.3-.36Zm8.91-2.04c.76,1.33,1.84,2.59,3.29,3.35-.43.38-1.06,1.21-1.37,1.76-1.28-.83-2.25-2.12-2.95-3.47v2.36c0,.9-.13,1.4-.68,1.69-.56.31-1.26.34-2.27.34-.05-.54-.27-1.3-.5-1.85.5.04,1.04.02,1.22.02.2,0,.25-.05.25-.23v-7.06h-3.71v-1.82h6.27v-.92h-5v-1.62h5v-.97h-5.4v-1.76h7.38v5.28h1.33v1.82h-3.89v.59c.18.61.41,1.28.74,1.93.56-.61,1.22-1.49,1.62-2.16l1.67,1.03c-.72.83-1.53,1.67-2.16,2.27l-.85-.56Zm-5.22-2.47c.72.63,1.51,1.58,1.85,2.27l-1.49.99c-.31-.67-1.08-1.66-1.76-2.36l1.4-.9Z"/>
      <path d="m170.2,24.77c.83-.85,2.21-2.68,3.31-3.96,1.24-1.42,2.41-1.55,3.71-.29,1.21,1.19,2.63,3.03,3.69,4.18,1.13,1.24,2.65,2.84,4.36,4.38l-1.84,2.11c-1.28-1.21-2.81-2.92-3.94-4.25-1.12-1.3-2.43-3.01-3.28-3.94-.63-.68-.96-.59-1.48.05-.7.9-1.98,2.67-2.74,3.67-.41.58-.81,1.22-1.13,1.69l-2.16-2.23c.52-.43.95-.83,1.49-1.4Z"/>
    </g>
  </g>
</svg>