<?xml version="1.0" encoding="UTF-8"?>
<svg id="_レイヤー_2" data-name="レイヤー 2" xmlns="http://www.w3.org/2000/svg" width="28" height="28" viewBox="0 0 28 28">
  <defs>
    <style>
      .cls-1 {
        stroke: #fff;
      }

      .cls-1, .cls-2 {
        stroke-linecap: round;
        stroke-linejoin: round;
      }

      .cls-1, .cls-3 {
        fill: none;
      }

      .cls-2 {
        fill: #787878;
        stroke: #787878;
      }
    </style>
  </defs>
  <g id="_タブバー" data-name="タブバー">
    <g>
      <rect class="cls-3" width="28" height="28"/>
      <g>
        <path class="cls-2" d="m21.3,13.19c0-4.03-3.27-7.3-7.3-7.3s-7.3,3.27-7.3,7.3c0,2.09.88,3.96,2.28,5.29h-.01c1.94,1.8,2.67,3.32,2.67,3.32h4.7s.73-1.52,2.67-3.33h-.01c1.4-1.33,2.28-3.21,2.28-5.29Z"/>
        <g>
          <path class="cls-1" d="m19.34,11.87c-.81-1.71-2.27-3.06-4.06-3.73"/>
          <rect class="cls-2" x="11.43" y="23.83" width="5.13" height=".37"/>
          <path class="cls-2" d="m12.54,26.09c.2.62.77,1.07,1.46,1.07s1.26-.45,1.46-1.07h-2.92Z"/>
          <line class="cls-2" x1="2.25" y1="9.38" x2="4.36" y2="10.06"/>
          <line class="cls-2" x1="6.74" y1="3.2" x2="8.04" y2="4.99"/>
          <line class="cls-2" x1="14" y1=".84" x2="14" y2="3.05"/>
          <line class="cls-2" x1="21.26" y1="3.2" x2="19.96" y2="4.99"/>
          <line class="cls-2" x1="25.75" y1="9.38" x2="23.64" y2="10.06"/>
          <line class="cls-2" x1="25.75" y1="17.01" x2="23.64" y2="16.33"/>
          <line class="cls-2" x1="2.25" y1="17.01" x2="4.36" y2="16.33"/>
        </g>
      </g>
    </g>
  </g>
</svg>