<?xml version="1.0" encoding="UTF-8"?>
<svg id="_レイヤー_2" data-name="レイヤー 2" xmlns="http://www.w3.org/2000/svg" width="30.03" height="28" viewBox="0 0 30.03 28">
  <defs>
    <style>
      .cls-1 {
        fill: #787878;
      }

      .cls-1, .cls-2 {
        stroke: #787878;
        stroke-linecap: round;
        stroke-linejoin: round;
      }

      .cls-2 {
        fill: none;
      }
    </style>
  </defs>
  <g id="_タブバー" data-name="タブバー">
    <g>
      <g>
        <circle class="cls-1" cx="15.02" cy="3.28" r="2.78"/>
        <path class="cls-1" d="m23.36,4.88c-1.74.94-6.69,3.57-6.69,3.57,0,0-.84.39-1.65.39s-1.65-.39-1.65-.39c0,0-4.95-2.63-6.69-3.57-2.14-1.16-3.49,1.49-1.36,2.66,2.46,1.34,5.91,3.16,5.91,3.16,0,0,.08,4.1.16,5.72,0,0-.5,7.86-.44,9.58.06,1.71,2.32,2.27,2.71,0,.39-2.27.83-7.93.83-7.93h1.07s.44,5.66.83,7.93c.39,2.27,2.65,1.71,2.71,0,.06-1.71-.44-9.58-.44-9.58.07-1.62.16-5.72.16-5.72,0,0,3.45-1.82,5.91-3.16,2.13-1.17.78-3.82-1.36-2.66Z"/>
      </g>
      <g>
        <line class="cls-2" x1="4.16" y1="17.33" x2=".59" y2="18.29"/>
        <line class="cls-2" x1="5.7" y1="19.94" x2="2.66" y2="22.06"/>
        <line class="cls-2" x1="4.19" y1="14.31" x2=".5" y2="13.99"/>
      </g>
      <g>
        <line class="cls-2" x1="25.87" y1="17.33" x2="29.45" y2="18.29"/>
        <line class="cls-2" x1="24.34" y1="19.94" x2="27.37" y2="22.06"/>
        <line class="cls-2" x1="25.85" y1="14.31" x2="29.53" y2="13.99"/>
      </g>
    </g>
  </g>
</svg>