<?xml version="1.0" encoding="UTF-8"?>
<svg id="_レイヤー_2" data-name="レイヤー 2" xmlns="http://www.w3.org/2000/svg" width="130" height="45" viewBox="0 0 130 45">
  <defs>
    <style>
      .cls-1 {
        fill: #fff;
      }

      .cls-2 {
        fill: none;
        stroke: #fff;
        stroke-linecap: round;
        stroke-miterlimit: 10;
        stroke-width: 2px;
      }
    </style>
  </defs>
  <g id="_ナビゲーションバー" data-name="ナビゲーションバー">
    <rect width="130" height="45"/>
    <g>
      <line class="cls-2" x1="97.96" y1="15.5" x2="117.96" y2="15.5"/>
      <line class="cls-2" x1="97.96" y1="22.5" x2="117.96" y2="22.5"/>
      <line class="cls-2" x1="97.96" y1="29.5" x2="117.96" y2="29.5"/>
    </g>
    <g>
      <path class="cls-1" d="m28.04,16.28c-.23.4-.58,1.19-.74,1.6-.54,1.44-1.35,3.24-2.43,4.9,1.58,1.3,3.08,2.68,4.29,3.96l-1.85,2.07c-1.26-1.48-2.54-2.72-3.98-3.96-1.58,1.91-3.66,3.91-6.7,5.56l-2.07-1.85c2.94-1.42,5.08-3.17,6.84-5.31-1.28-1.01-2.99-2.3-4.83-3.4l1.55-1.85c1.44.9,3.29,2.16,4.75,3.24.92-1.44,1.49-2.86,1.98-4.27.16-.45.34-1.19.43-1.66l2.76.97Z"/>
      <path class="cls-1" d="m32.36,26.08c.7.05,1.55.13,2.25.13h10.33c.61,0,1.37-.05,1.98-.13v2.75c-.63-.07-1.44-.11-1.98-.11h-10.33c-.7,0-1.58.05-2.25.11v-2.75Zm1.51-8.8c.65.07,1.49.11,2.11.11h7.45c.72,0,1.49-.05,2-.11v2.61c-.52-.02-1.37-.07-2-.07h-7.44c-.68,0-1.51.04-2.12.07v-2.61Z"/>
      <path class="cls-1" d="m61.88,27.54c.47,0,1.3-.02,1.76-.07v2.32c-.36-.02-1.24-.05-1.71-.05h-9.49c-.65,0-1.1.02-1.78.05v-2.34c.49.05,1.15.09,1.78.09h5.83c.25-1.53.65-4.09.7-5.1h-4.86c-.58,0-1.28.05-1.8.09v-2.38c.47.05,1.3.11,1.78.11h4.61c.38,0,1.12-.07,1.35-.2l1.73.85c-.09.23-.14.58-.18.76-.14,1.06-.61,4.16-.88,5.87h1.15Z"/>
      <path class="cls-1" d="m67.06,21.16c.65.05,1.96.11,2.9.11h9.67c.83,0,1.64-.07,2.11-.11v2.83c-.43-.02-1.35-.09-2.11-.09h-9.67c-1.03,0-2.23.04-2.9.09v-2.83Z"/>
    </g>
  </g>
</svg>