<?xml version="1.0" encoding="UTF-8"?>
<svg id="_レイヤー_2" data-name="レイヤー 2" xmlns="http://www.w3.org/2000/svg" width="240" height="40" viewBox="0 0 240 40">
  <defs>
    <style>
      .cls-1 {
        fill: #fff;
      }
    </style>
  </defs>
  <g id="_レイヤー_1-2" data-name="レイヤー 1">
    <g>
      <rect class="cls-1" x=".5" y=".5" width="239" height="39" rx="9.5" ry="9.5"/>
      <path d="m230,1c4.96,0,9,4.04,9,9v20c0,4.96-4.04,9-9,9H10c-4.96,0-9-4.04-9-9V10C1,5.04,5.04,1,10,1h220m0-1H10C4.48,0,0,4.48,0,10v20c0,5.52,4.48,10,10,10h220c5.52,0,10-4.48,10-10V10c0-5.52-4.48-10-10-10h0Z"/>
    </g>
    <g>
      <path d="m171.37,26.21h-5.11v.75h-1.71v-8.2l-.18.26c-.19-.21-.56-.54-.91-.83v1.28h-2.4v.62h2.42v1.39h-2.42v.05c0,.21,0,.42-.02.62h2.83v1.49h-2.96c.91.51,2.37,1.38,2.8,1.66l-1.09,1.55c-.58-.51-1.63-1.34-2.5-1.97-.54.8-1.39,1.52-2.71,2.1-.24-.38-.74-.96-1.15-1.28,1.36-.53,2.13-1.28,2.54-2.06h-2.4v-1.49h2.85c.02-.22.03-.43.03-.64v-.03h-2.3v-1.39h2.3v-.62h-2.37v-3.59h6.53v1.25c.88-1.38,1.6-3.28,2.07-5.12l1.74.38c-.22.86-.51,1.74-.83,2.58h1.22c.35-.86.69-1.97.88-2.82l1.83.42c-.3.82-.62,1.67-.95,2.4h1.79v1.7h-1.87v1.49h1.75v1.6h-1.75v1.54h1.75v1.6h-1.75v1.58h2.03v1.73Zm-13.53-11.44h-1.3v-1.47h1.3v-1.3h1.65v1.3h1.5v-1.3h1.63v1.3h1.26v1.47h-1.26v.83h-1.63v-.83h-1.5v.83h-1.65v-.83Zm.51,3.47h1.03v-1.14h-1.03v1.14Zm3.6-1.14h-1.06v1.14h1.06v-1.14Zm5.68-.43h-1.38v1.49h1.38v-1.49Zm0,3.09h-1.38v1.54h1.38v-1.54Zm-1.38,4.72h1.38v-1.58h-1.38v1.58Z"/>
      <path d="m177.67,12.91c-.11.67-.19,1.47-.21,2.11-.08,1.7-.19,5.25-.19,7.22,0,1.6.96,2.11,2.18,2.11,2.62,0,4.29-1.5,5.43-3.23l1.44,1.78c-1.02,1.5-3.27,3.62-6.88,3.62-2.59,0-4.27-1.14-4.27-3.84,0-2.13.16-6.29.16-7.65,0-.75-.06-1.52-.21-2.15l2.56.03Z"/>
      <path d="m191.45,16.08c-.02,1.02,0,2.23.1,3.36.22,2.29.7,3.84,1.7,3.84.75,0,1.38-1.86,1.68-3.11l1.6,1.92c-1.06,2.75-2.05,3.73-3.33,3.73-1.73,0-3.25-1.57-3.7-5.83-.14-1.46-.18-3.3-.18-4.27,0-.45-.02-1.12-.11-1.6l2.43.03c-.11.56-.19,1.49-.19,1.92Zm11.01,6.51l-2.1.8c-.24-2.55-1.09-6.27-2.82-8.23l2.02-.67c1.5,1.84,2.72,5.67,2.9,8.1Z"/>
    </g>
  </g>
</svg>