<?xml version="1.0" encoding="UTF-8"?>
<svg id="_レイヤー_2" data-name="レイヤー 2" xmlns="http://www.w3.org/2000/svg" width="120" height="40" viewBox="0 0 120 40">
  <defs>
    <style>
      .cls-1 {
        fill: #fff;
      }
    </style>
  </defs>
  <g id="_レイヤー_1-2" data-name="レイヤー 1">
    <path d="m10,0h110v40H10c-5.52,0-10-4.48-10-10V10C0,4.48,4.48,0,10,0Z"/>
    <g>
      <path class="cls-1" d="m41.03,12.54c-.34,1.02-.75,2.08-1.22,3.1v11.28h-1.81v-8c-.32.48-.66.93-.99,1.31-.14-.45-.61-1.55-.91-2.05,1.28-1.49,2.46-3.83,3.17-6.18l1.76.53Zm9.14,10.55c-.5.75-1.22,1.41-2.16,1.95,1.07.21,2.26.35,3.52.42-.35.38-.77,1.06-.99,1.52-1.75-.18-3.31-.48-4.66-.99-1.3.45-2.83.78-4.56,1.02-.18-.42-.58-1.01-.91-1.38,1.34-.13,2.54-.34,3.6-.58-.4-.26-.77-.54-1.1-.86-.45.22-.94.43-1.47.64-.22-.37-.7-.91-1.04-1.15,1.67-.48,2.93-1.14,3.73-1.84-.34-.19-.45-.53-.46-1.09-.42.56-.94,1.15-1.54,1.57l-1.12-.9c.29-.16.58-.38.83-.62h-1.2v-2.29h1.46v-3.95h2.64c.05-.18.08-.37.13-.56h-3.67v-1.36h9.81v1.36h-4.18l-.26.56h3.42v3.95h1.34v2.29h-1.01c.26.29.5.58.64.82l-1.23.66c-.21-.37-.61-.85-1.02-1.3-.14.82-.51,1.07-1.42,1.07h-1.34c-.14.16-.3.32-.48.46h3.25l.32-.06,1.14.64Zm-5.03-3.23v.8c0,.34.1.38.53.38h1.41c.32,0,.4-.1.46-.54.24.13.67.27,1.04.34-.14-.14-.3-.3-.45-.43l1.17-.59c.11.1.22.19.34.3v-.51h-2.77c.26.22.46.45.61.64l-1.15.67c-.26-.4-.82-.93-1.33-1.31h-2.75v.77c.14-.16.29-.34.4-.5l1.01.54v-.56h1.49Zm-1.36-4.37v.48h4.43v-.48h-4.43Zm4.43,1.25h-4.43v.51h4.43v-.51Zm-4.43,1.78h4.43v-.5h-4.43v.5Zm.61,5.07c.43.34.98.62,1.58.86.66-.26,1.18-.54,1.62-.86h-3.2Z"/>
      <path class="cls-1" d="m57.67,12.91c-.11.67-.19,1.47-.21,2.11-.08,1.7-.19,5.25-.19,7.22,0,1.6.96,2.11,2.18,2.11,2.62,0,4.29-1.5,5.43-3.23l1.44,1.78c-1.02,1.5-3.27,3.62-6.88,3.62-2.59,0-4.27-1.14-4.27-3.84,0-2.13.16-6.29.16-7.65,0-.75-.06-1.52-.21-2.15l2.56.03Z"/>
      <path class="cls-1" d="m71.45,16.08c-.02,1.02,0,2.23.1,3.36.22,2.29.7,3.84,1.7,3.84.75,0,1.38-1.86,1.68-3.11l1.6,1.92c-1.06,2.75-2.05,3.73-3.33,3.73-1.73,0-3.25-1.57-3.7-5.83-.14-1.46-.18-3.3-.18-4.27,0-.45-.02-1.12-.11-1.6l2.43.03c-.11.56-.19,1.49-.19,1.92Zm11.01,6.51l-2.1.8c-.24-2.55-1.09-6.27-2.82-8.23l2.02-.67c1.5,1.84,2.72,5.67,2.9,8.1Z"/>
    </g>
  </g>
</svg>