<?xml version="1.0" encoding="UTF-8"?>
<svg id="_レイヤー_2" data-name="レイヤー 2" xmlns="http://www.w3.org/2000/svg" width="100" height="24" viewBox="0 0 100 24">
  <defs>
    <style>
      .cls-1 {
        fill: #fff;
      }

      .cls-2 {
        fill: none;
        stroke: #000;
        stroke-miterlimit: 10;
      }
    </style>
  </defs>
  <g id="_レイヤー_1-2" data-name="レイヤー 1">
    <g>
      <rect class="cls-1" width="100" height="24" rx="5" ry="5"/>
      <g>
        <path d="m33.15,9.32h-4.97v-.96h4.97v.96Zm-.47,8.11h-2.87v.55h-1.04v-4.37h3.91v3.82Zm-3.89-7.31h3.9v.94h-3.9v-.94Zm0,1.73h3.9v.95h-3.9v-.95Zm3.86-4.26h-3.81v-.95h3.81v.95Zm-2.85,6.99v1.87h1.82v-1.87h-1.82Zm10.36.47h-2.96v3.08h-1.18v-3.08h-3.02v-1.11h3.02v-1.61h-2.35v-1.09h2.35v-1.49h-2.6v-1.09h1.35c-.17-.6-.51-1.4-.87-2.03l.98-.35c.42.68.83,1.56.97,2.16l-.55.22h2.61l-.54-.19c.31-.61.74-1.59.94-2.28l1.2.35c-.38.74-.77,1.55-1.1,2.12h1.57v1.09h-2.77v1.49h2.48v1.09h-2.48v1.61h2.96v1.11Z"/>
        <path d="m43.48,13.82c-.16,1.22-.44,2.48-.84,3.3-.21-.13-.68-.35-.92-.44.39-.78.62-1.94.74-3.04l1.03.18Zm9.92-6.6v10.65h-1.13v-.59h-3.96v.69h-1.09v-4.94l-.9.43c-.06-.26-.17-.57-.3-.91l-1,.1v5.47h-1.08v-5.37c-.73.08-1.42.14-2.01.19l-.16-1.08c.3-.01.65-.04,1.03-.06.22-.27.44-.57.68-.9-.39-.57-1.07-1.3-1.65-1.85l.59-.81c.12.1.23.21.36.32.4-.74.83-1.68,1.08-2.38l1.08.42c-.47.88-1.01,1.9-1.48,2.63.25.26.47.52.64.75.52-.78,1-1.6,1.34-2.27l1.01.48c-.71,1.12-1.65,2.46-2.5,3.52l1.65-.12c-.17-.31-.34-.61-.51-.9l.9-.39c.49.77,1,1.74,1.24,2.46v-5.56h6.19Zm-7.18,6.37c.35.79.7,1.82.84,2.48l-.96.35c-.12-.69-.48-1.73-.81-2.54l.92-.3Zm2.08-5.24v3.3h1.4v-3.3h-1.4Zm0,7.81h1.4v-3.41h-1.4v3.41Zm3.96-7.81h-1.5v3.3h1.5v-3.3Zm0,7.81v-3.41h-1.5v3.41h1.5Z"/>
        <path d="m61.44,15.31c.04-.44.05-1.17.05-1.81-1.09.61-1.78,1.2-1.78,1.95,0,.88.83,1.05,2.13,1.05,1.04,0,2.45-.13,3.58-.34l-.04,1.31c-.94.12-2.42.22-3.58.22-1.92,0-3.42-.44-3.42-2.04s1.55-2.59,3.03-3.34c-.16-.46-.57-.64-1.04-.64-.81,0-1.59.42-2.13.92-.38.36-.75.83-1.18,1.38l-1.11-.83c1.51-1.43,2.38-2.68,2.91-3.76h-.38c-.53,0-1.43-.03-2.14-.08v-1.21c.68.09,1.6.14,2.21.14h.75c.17-.58.27-1.14.3-1.55l1.34.1c-.08.34-.18.83-.36,1.39,1.27-.05,2.62-.17,3.81-.38v1.2c-1.26.19-2.85.3-4.24.35-.26.57-.6,1.17-.97,1.68.4-.23,1.13-.38,1.64-.38.81,0,1.47.38,1.72,1.09.79-.38,1.46-.65,2.07-.92.43-.19.81-.36,1.22-.57l.51,1.2c-.35.1-.91.31-1.3.47-.66.25-1.5.6-2.39,1.01.01.73.04,1.76.05,2.37h-1.25Z"/>
        <path d="m78.35,16.89c.51,0,.59-.21.64-1.78.26.22.79.4,1.13.49-.14,1.95-.48,2.43-1.65,2.43h-1.92c-1.37,0-1.7-.36-1.7-1.59v-2.35h-1.87c-.3,2.07-1.11,3.39-4.15,4.08-.12-.31-.44-.82-.69-1.07,2.67-.52,3.3-1.47,3.55-3.02h-1.68v-7.45h8.27v7.45h-2.2v2.35c0,.39.09.44.61.44h1.66Zm-7.18-8.07h5.88v-1.09h-5.88v1.09Zm0,2.09h5.88v-1.1h-5.88v1.1Zm0,2.12h5.88v-1.12h-5.88v1.12Z"/>
        <path d="m90.52,8.15c-.26.17-.56.36-.79.53-.66.47-2.22,1.83-3.13,2.59.52-.17,1.01-.22,1.52-.22,2.16,0,3.76,1.33,3.76,3.12,0,2.07-1.65,3.54-4.54,3.54-1.78,0-2.98-.81-2.98-1.96,0-.95.87-1.83,2.13-1.83,1.6,0,2.52,1.03,2.7,2.26.87-.39,1.35-1.08,1.35-2.02,0-1.21-1.22-2.07-2.8-2.07-2.05,0-3.28.96-4.8,2.57l-.95-.96c1-.82,2.61-2.17,3.37-2.8.71-.6,2.2-1.83,2.85-2.39-.68.03-2.87.12-3.55.16-.32.03-.66.05-.95.09l-.04-1.34c.33.04.71.06,1.03.06.68,0,3.59-.08,4.29-.14.44-.05.68-.08.82-.13l.7.94Zm-2.51,8.33c-.1-.95-.66-1.57-1.52-1.57-.53,0-.92.31-.92.71,0,.56.66.91,1.54.91.32,0,.62-.01.91-.05Z"/>
      </g>
      <g>
        <path d="m16.58,9.97c0-.6-.4-.98-1.02-.98-.53,0-.95.28-1.33.67l-.97-.89c.62-.71,1.48-1.2,2.52-1.2,1.44,0,2.49.74,2.49,2.28,0,1.7-2.09,2.28-1.91,3.97h-1.54c-.29-1.93,1.75-2.7,1.75-3.85Zm-2.08,5.89c0-.65.47-1.15,1.09-1.15s1.1.5,1.1,1.15-.47,1.15-1.1,1.15-1.09-.5-1.09-1.15Z"/>
        <circle class="cls-2" cx="15.79" cy="12" r="7.5"/>
      </g>
    </g>
  </g>
</svg>