<?xml version="1.0" encoding="UTF-8"?>
<svg id="_レイヤー_2" data-name="レイヤー 2" xmlns="http://www.w3.org/2000/svg" width="375" height="44" xmlns:xlink="http://www.w3.org/1999/xlink" viewBox="0 0 375 44">
  <defs>
    <style>
      .cls-1 {
        fill: #fff;
      }

      .cls-2 {
        filter: url(#drop-shadow-1);
      }
    </style>
    <filter id="drop-shadow-1" filterUnits="userSpaceOnUse">
      <feOffset dx="3" dy="3"/>
      <feGaussianBlur result="blur" stdDeviation="3"/>
      <feFlood flood-color="#000" flood-opacity=".3"/>
      <feComposite in2="blur" operator="in"/>
      <feComposite in="SourceGraphic"/>
    </filter>
  </defs>
  <g id="_レイヤー_1-2" data-name="レイヤー 1">
    <rect class="cls-2" width="375" height="44"/>
    <g>
      <path class="cls-1" d="m143.46,23.14c-.43,1.5-1.12,2.75-2.02,3.76.8.53,1.76.93,2.82,1.18-.37.35-.87,1.04-1.12,1.49-1.14-.34-2.13-.83-2.98-1.49-.82.62-1.73,1.12-2.72,1.49-.18-.37-.53-.9-.85-1.28v1.3h-1.82v-1.3c-1.84.18-3.67.34-5.07.46l-.14-1.63c.42-.03.9-.05,1.39-.1v-4.87h-1.25v-1.5h14.23v1.5h-7.33v5.86c.82-.27,1.6-.66,2.27-1.15-.58-.69-1.07-1.49-1.46-2.37l1.06-.29h-1.47v-1.46h4.98l.32-.06,1.17.45Zm-1.38-3.07h-10.52v-4.91h10.52v4.91Zm-9.4,2.1v.64h2.08v-.64h-2.08Zm0,2.64h2.08v-.67h-2.08v.67Zm0,2.1c.67-.05,1.38-.1,2.08-.16v-.62h-2.08v.78Zm7.49-10.53h-6.79v.66h6.79v-.66Zm0,1.81h-6.79v.67h6.79v-.67Zm-1.17,6.03c.27.58.64,1.1,1.07,1.57.43-.46.8-.99,1.09-1.57h-2.16Z"/>
      <path class="cls-1" d="m151.02,24.29c.58.4,1.9,1.46,2.27,1.75l-1.1,1.36c-.26-.32-.7-.8-1.17-1.25v3.41h-1.84v-3.22c-.62.9-1.34,1.7-2.03,2.26-.29-.42-.83-1.04-1.23-1.34,1.04-.69,2.15-1.89,2.88-3.09h-2.43v-1.6h2.82v-1.23h-2.87v-1.57h1.47c-.06-.53-.26-1.23-.48-1.76l.98-.22h-1.79v-1.55h2.69v-1.46h1.84v1.46h2.66v1.55h-1.65l.93.18c-.29.69-.54,1.33-.77,1.81h1.62v1.57h-2.79v1.23h2.64v1.6h-2.64v.13Zm-2.21-6.51c.27.54.48,1.28.54,1.76l-.8.22h3.14l-1.06-.22c.21-.48.46-1.22.59-1.76h-2.42Zm12.26,3.89h-1.52v7.83h-1.84v-7.83h-1.63c-.02,2.39-.35,5.76-2.46,7.96-.24-.42-.93-1.07-1.36-1.3,1.84-1.95,2.03-4.67,2.03-6.88v-5.55l1.12.32c1.52-.37,3.09-.88,4.07-1.41l1.52,1.39c-1.41.62-3.23,1.12-4.91,1.47v2.24h4.99v1.76Z"/>
      <path class="cls-1" d="m169.93,26.98c.61-.08,1.06-.16,1.47-.26,2.03-.48,3.6-1.94,3.6-4.24s-1.18-3.83-3.31-4.19c-.22,1.34-.5,2.82-.95,4.31-.94,3.2-2.32,5.15-4.05,5.15s-3.23-1.94-3.23-4.61c0-3.65,3.19-6.79,7.3-6.79s6.4,2.74,6.4,6.19-2.05,5.7-6.05,6.31l-1.19-1.87Zm-1.23-4.8c.37-1.17.66-2.53.85-3.84-2.62.54-4.02,2.85-4.02,4.59,0,1.6.64,2.38,1.23,2.38.66,0,1.3-.99,1.94-3.14Z"/>
      <path class="cls-1" d="m181.98,21.96c-.53-.5-1.62-1.14-2.5-1.54l1.04-1.39c.88.34,2.02.9,2.56,1.39l-1.1,1.54Zm1.38,2.34c-.53,1.71-1.23,3.55-1.89,5.12l-1.71-.98c.59-1.23,1.44-3.27,2.06-5.14l1.54.99Zm-.79-6.5c-.51-.51-1.6-1.22-2.48-1.62l1.07-1.41c.86.37,1.98,1.01,2.53,1.49l-1.12,1.54Zm3.52,8.52c-.53,1.22-1.39,2.53-2.16,3.33-.35-.29-1.07-.75-1.49-.98.75-.72,1.49-1.79,1.92-2.83l1.73.48Zm2.66-.61h-4.83v-10.44h4.83v10.44Zm-1.67-8.79h-1.57v1.34h1.57v-1.34Zm0,2.87h-1.57v1.36h1.57v-1.36Zm0,2.9h-1.57v1.38h1.57v-1.38Zm.96,3.03c.59.74,1.34,1.78,1.68,2.45l-1.5.9c-.3-.67-1.02-1.74-1.62-2.54l1.44-.8Zm3.15-.19h-1.65v-9.25h1.65v9.25Zm2.72-10.85v12.79c0,.98-.18,1.47-.74,1.76-.56.3-1.39.37-2.64.37-.06-.5-.3-1.3-.54-1.82.82.03,1.58.03,1.84.03.27-.02.35-.1.35-.34v-12.79h1.73Z"/>
      <path class="cls-1" d="m204.77,27.43c.58.06,1.18.1,1.83.1.86,0,3.5,0,4.58-.05-.27.46-.58,1.38-.67,1.94h-4c-2.96,0-5.15-.48-6.6-2.77-.53,1.23-1.23,2.26-2.14,3.04-.32-.34-1.12-1.01-1.57-1.3,1.73-1.28,2.51-3.49,2.8-6.23l1.98.19c-.1.72-.21,1.39-.35,2.03.48,1.28,1.23,2.05,2.18,2.51v-5.65h-3.41v-1.81h8.8v1.81h-3.42v2h4.4v1.79h-4.4v2.38Zm-5.94-7.17h-1.87v-4h5.81v-1.6h2.02v1.6h5.86v4h-1.97v-2.19h-9.84v2.19Z"/>
      <path class="cls-1" d="m215.29,24.28c-.16,1.5-.5,3.11-.96,4.13-.34-.21-1.04-.54-1.46-.69.46-.94.72-2.37.85-3.71l1.57.27Zm3.07-4.5c.64,1.07,1.28,2.46,1.47,3.38l-1.44.67c-.05-.26-.13-.54-.22-.86l-.91.06v6.58h-1.68v-6.45c-.86.05-1.66.11-2.37.16l-.16-1.67,1.18-.05c.24-.3.5-.64.74-.99-.46-.69-1.25-1.55-1.92-2.19l.9-1.31c.13.11.26.22.38.34.45-.88.9-1.95,1.17-2.79l1.68.59c-.58,1.1-1.23,2.34-1.81,3.23.21.22.4.46.56.67.58-.9,1.09-1.82,1.47-2.62l1.62.67c-.9,1.41-2.02,3.04-3.06,4.34l1.62-.08c-.18-.37-.37-.75-.56-1.09l1.34-.59Zm.34,4.13c.43.94.85,2.19,1.04,3.01l-1.5.53c-.13-.82-.54-2.11-.94-3.09l1.41-.45Zm5.84-5.47v1.75h3.14v1.73h-8v-1.73h2.93v-1.75h-3.38v-1.73h3.38v-2.06h1.94v2.06h3.5v1.73h-3.5Zm-4.37,4.82h7.16v6.31h-1.84v-.66h-3.57v.67h-1.74v-6.32Zm1.74,1.7v2.26h3.57v-2.26h-3.57Z"/>
      <path class="cls-1" d="m239.82,24.76c1.41,1.14,3.36,2.16,5.19,2.69-.43.38-1.01,1.14-1.28,1.62-1.86-.7-3.81-1.95-5.3-3.41v3.94h-2.02v-3.86c-1.47,1.47-3.43,2.72-5.33,3.42-.29-.45-.86-1.18-1.3-1.58,1.9-.56,3.89-1.62,5.23-2.82h-4.74v-1.75h6.13v-.94h-4.58v-6.69h11.24v6.69h-4.64v.94h6.11v1.75h-4.72Zm-5.99-6.77h2.58v-1.02h-2.58v1.02Zm2.58,2.5v-1.02h-2.58v1.02h2.58Zm4.56-3.52h-2.55v1.02h2.55v-1.02Zm0,2.5h-2.55v1.02h2.55v-1.02Z"/>
    </g>
  </g>
</svg>