<?xml version="1.0" encoding="UTF-8"?>
<svg id="_レイヤー_2" data-name="レイヤー 2" xmlns="http://www.w3.org/2000/svg" width="325" height="50" viewBox="0 0 325 50">
  <defs>
    <style>
      .cls-1 {
        fill: #fff;
      }
    </style>
  </defs>
  <g id="_レイヤー_1-2" data-name="レイヤー 1">
    <g>
      <path d="m325,25c0,13.75-11.25,25-25,25H25C11.25,50,0,38.75,0,25h0C0,11.25,11.25,0,25,0h275c13.75,0,25,11.25,25,25h0Z"/>
      <g>
        <g>
          <path class="cls-1" d="m142.1,20.02c-.14.2-.47.76-.63,1.12-.61,1.4-1.62,3.33-2.83,4.95,1.78,1.55,3.96,3.85,5.02,5.15l-2.05,1.78c-1.17-1.62-2.84-3.46-4.54-5.1-1.91,2.02-4.3,3.89-6.77,5.06l-1.85-1.94c2.9-1.1,5.69-3.28,7.38-5.17,1.19-1.35,2.29-3.13,2.68-4.41h-6.1c-.76,0-1.75.11-2.12.13v-2.56c.49.07,1.58.13,2.12.13h6.34c.79,0,1.51-.11,1.87-.23l1.48,1.1Z"/>
          <path class="cls-1" d="m161.4,20.74c-.2.34-.43.83-.59,1.28-.47,1.39-1.3,3.21-2.48,4.93.67.41,1.28.83,1.73,1.15l-1.64,2.11c-.43-.38-1.01-.81-1.67-1.28-1.6,1.75-3.73,3.37-6.64,4.48l-2.09-1.82c3.19-.97,5.22-2.5,6.72-4.03-1.22-.79-2.45-1.53-3.37-2.05l1.53-1.71c.95.49,2.18,1.17,3.38,1.89.88-1.28,1.6-2.75,1.87-3.83h-5.17c-1.26,1.67-2.93,3.4-4.75,4.65l-1.94-1.49c3.17-1.94,4.84-4.41,5.74-5.98.27-.43.65-1.26.81-1.89l2.61.81c-.43.63-.9,1.46-1.12,1.84l-.02.02h3.69c.56,0,1.17-.07,1.57-.2l1.84,1.13Z"/>
          <path class="cls-1" d="m164.42,23.89c.65.05,1.96.11,2.9.11h9.67c.83,0,1.64-.07,2.11-.11v2.83c-.43-.02-1.35-.09-2.11-.09h-9.67c-1.03,0-2.23.04-2.9.09v-2.83Z"/>
          <path class="cls-1" d="m194.03,28.08c-1.86-.97-4.56-2.02-6.5-2.68v5.1c0,.52.09,1.78.16,2.5h-2.81c.11-.7.18-1.78.18-2.5v-10.33c0-.65-.05-1.55-.18-2.18h2.81c-.07.63-.16,1.42-.16,2.18v2.65c2.41.7,5.87,1.98,7.53,2.79l-1.03,2.48Z"/>
        </g>
        <g>
          <path class="cls-1" d="m142.1,20.02c-.14.2-.47.76-.63,1.12-.61,1.4-1.62,3.33-2.83,4.95,1.78,1.55,3.96,3.85,5.02,5.15l-2.05,1.78c-1.17-1.62-2.84-3.46-4.54-5.1-1.91,2.02-4.3,3.89-6.77,5.06l-1.85-1.94c2.9-1.1,5.69-3.28,7.38-5.17,1.19-1.35,2.29-3.13,2.68-4.41h-6.1c-.76,0-1.75.11-2.12.13v-2.56c.49.07,1.58.13,2.12.13h6.34c.79,0,1.51-.11,1.87-.23l1.48,1.1Z"/>
          <path class="cls-1" d="m161.4,20.74c-.2.34-.43.83-.59,1.28-.47,1.39-1.3,3.21-2.48,4.93.67.41,1.28.83,1.73,1.15l-1.64,2.11c-.43-.38-1.01-.81-1.67-1.28-1.6,1.75-3.73,3.37-6.64,4.48l-2.09-1.82c3.19-.97,5.22-2.5,6.72-4.03-1.22-.79-2.45-1.53-3.37-2.05l1.53-1.71c.95.49,2.18,1.17,3.38,1.89.88-1.28,1.6-2.75,1.87-3.83h-5.17c-1.26,1.67-2.93,3.4-4.75,4.65l-1.94-1.49c3.17-1.94,4.84-4.41,5.74-5.98.27-.43.65-1.26.81-1.89l2.61.81c-.43.63-.9,1.46-1.12,1.84l-.02.02h3.69c.56,0,1.17-.07,1.57-.2l1.84,1.13Z"/>
          <path class="cls-1" d="m164.42,23.89c.65.05,1.96.11,2.9.11h9.67c.83,0,1.64-.07,2.11-.11v2.83c-.43-.02-1.35-.09-2.11-.09h-9.67c-1.03,0-2.23.04-2.9.09v-2.83Z"/>
          <path class="cls-1" d="m194.03,28.08c-1.86-.97-4.56-2.02-6.5-2.68v5.1c0,.52.09,1.78.16,2.5h-2.81c.11-.7.18-1.78.18-2.5v-10.33c0-.65-.05-1.55-.18-2.18h2.81c-.07.63-.16,1.42-.16,2.18v2.65c2.41.7,5.87,1.98,7.53,2.79l-1.03,2.48Z"/>
        </g>
      </g>
    </g>
  </g>
</svg>